<svg width="153" height="152" viewBox="0 0 153 152" fill="none" xmlns="http://www.w3.org/2000/svg">
<g clip-path="url(#clip0_9_334)">
<path d="M87.9272 5.13479C87.9272 2.30781 90.7003 0 94.1607 0C97.6182 0 100.397 2.2958 100.397 5.13479V27.5976C100.397 30.4246 97.6182 32.7324 94.1607 32.7324C90.7003 32.7324 87.9272 30.4366 87.9272 27.5976V5.13479ZM105.501 95.6313H110.856C111.833 95.6313 112.637 96.4386 112.637 97.42V114.478H127.044C128.03 114.478 128.834 115.288 128.834 116.273V121.65C128.834 122.644 128.03 123.445 127.044 123.445H103.708V97.42C103.708 96.4386 104.515 95.6313 105.501 95.6313ZM112.903 71.4579C123.954 71.4579 133.989 75.9715 141.241 83.267C148.506 90.5416 153 100.61 153 111.732C153 122.842 148.512 132.922 141.256 140.206L141.053 140.398C133.812 147.564 123.87 152 112.903 152C101.829 152 91.803 147.486 84.5504 140.203L84.3592 139.996C77.2172 132.721 72.8005 122.731 72.8005 111.732C72.8005 100.61 77.2949 90.5416 84.5504 83.258C91.803 75.9715 101.838 71.4579 112.903 71.4579ZM136.433 88.0867C130.43 82.0516 122.101 78.3093 112.903 78.3093C103.714 78.3093 95.3889 82.0516 89.3705 88.0987C83.3491 94.1428 79.6228 102.504 79.6228 111.732C79.6228 120.885 83.2834 129.18 89.1912 135.197L89.3705 135.362C95.3889 141.406 103.714 145.152 112.903 145.152C122.012 145.152 130.271 141.472 136.275 135.539L136.436 135.365C142.457 129.318 146.181 120.96 146.181 111.732C146.181 102.504 142.451 94.1428 136.433 88.0867ZM16.9734 72.7094C16.6238 72.7094 16.3071 71.1488 16.3071 69.2401C16.3071 67.3225 16.582 65.7769 16.9734 65.7769H33.9887C34.3413 65.7769 34.6581 67.3375 34.6581 69.2401C34.6581 71.1548 34.3832 72.7094 33.9887 72.7094H16.9734ZM44.0981 72.7094C43.7484 72.7094 43.4317 71.1488 43.4317 69.2401C43.4317 67.3225 43.7066 65.7769 44.0981 65.7769H61.1133C61.466 65.7769 61.7827 67.3375 61.7827 69.2401C61.7827 71.1548 61.5078 72.7094 61.1133 72.7094H44.0981ZM71.2227 72.7094C70.8761 72.7094 70.5593 71.1488 70.5593 69.2401C70.5593 67.3225 70.8342 65.7769 71.2227 65.7769H88.238C88.5936 65.7769 88.9103 67.3225 88.9103 69.2251C87.207 70.2905 85.5635 71.4579 84.0006 72.7094H71.2227ZM17.0153 92.5883C16.6627 92.5883 16.3459 91.0277 16.3459 89.1161C16.3459 87.2014 16.6238 85.6409 17.0153 85.6409H34.0305C34.3832 85.6409 34.6939 87.2014 34.6939 89.1161C34.6939 91.0277 34.422 92.5883 34.0305 92.5883H17.0153ZM44.1399 92.5883C43.7873 92.5883 43.4705 91.0277 43.4705 89.1161C43.4705 87.2014 43.7484 85.6409 44.1399 85.6409H61.1552C61.5078 85.6409 61.8216 87.2014 61.8216 89.1161C61.8216 91.0277 61.5466 92.5883 61.1552 92.5883H44.1399ZM17.0511 112.479C16.6985 112.479 16.3818 110.919 16.3818 109.004C16.3818 107.092 16.6627 105.532 17.0511 105.532H34.0664C34.422 105.532 34.7358 107.092 34.7358 109.004C34.7358 110.919 34.4579 112.479 34.0664 112.479H17.0511ZM44.1787 112.479C43.8231 112.479 43.5064 110.919 43.5064 109.004C43.5064 107.092 43.7873 105.532 44.1787 105.532H61.194C61.5466 105.532 61.8634 107.092 61.8634 109.004C61.8634 110.919 61.5825 112.479 61.194 112.479H44.1787ZM31.9238 5.13479C31.9238 2.30781 34.6939 0 38.1574 0C41.6148 0 44.3909 2.2958 44.3909 5.13479V27.5976C44.3909 30.4246 41.5999 32.7324 38.1574 32.7324C34.6939 32.7324 31.9238 30.4366 31.9238 27.5976V5.13479ZM6.86408 49.1091H125.615V23.2461C125.615 22.3638 125.26 21.5865 124.692 21.0163C124.124 20.4461 123.32 20.092 122.475 20.092H111.089C109.18 20.092 107.626 18.5315 107.626 16.6198C107.626 14.7051 109.18 13.1446 111.089 13.1446H122.475C125.26 13.1446 127.764 14.276 129.593 16.1126C131.422 17.9523 132.545 20.4611 132.545 23.2611V64.3184C130.271 63.5322 127.94 62.8989 125.541 62.4308V56.0145H125.615H6.86408V122.989C6.86408 123.871 7.2167 124.645 7.78447 125.216C8.35523 125.786 9.16207 126.143 10.0078 126.143H66.4414C67.0869 128.547 67.8937 130.894 68.8649 133.15H10.0735C7.29439 133.15 4.78424 132.025 2.94943 130.182C1.12061 128.361 0 125.852 0 123.049V23.2731C0 20.4851 1.12061 17.9613 2.94943 16.1246C4.78424 14.285 7.28244 13.1596 10.0735 13.1596H22.2268C24.1334 13.1596 25.6843 14.7201 25.6843 16.6288C25.6843 18.5465 24.1334 20.107 22.2268 20.107H10.0735C9.18896 20.107 8.41799 20.4611 7.85021 21.0313C7.28244 21.6015 6.92684 22.4088 6.92684 23.2611V49.1181H6.86408V49.1091ZM54.3628 20.092C52.4533 20.092 50.9054 18.5315 50.9054 16.6198C50.9054 14.7051 52.4533 13.1446 54.3628 13.1446H77.5369C79.4464 13.1446 80.9944 14.7051 80.9944 16.6198C80.9944 18.5315 79.4464 20.092 77.5369 20.092H54.3628Z" fill="black"/>
</g>
<defs>
<clipPath id="clip0_9_334">
<rect width="153" height="152" fill="white"/>
</clipPath>
</defs>
</svg>
