<svg width="43" height="43" viewBox="0 0 43 43" fill="none" xmlns="http://www.w3.org/2000/svg">
<path id="Vector" d="M24.7116 1.45261C24.7116 0.652866 25.4909 0 26.4635 0C27.4352 0 28.2162 0.64947 28.2162 1.45261V7.80722C28.2162 8.60696 27.4352 9.25983 26.4635 9.25983C25.4909 9.25983 24.7116 8.61036 24.7116 7.80722V1.45261ZM29.6507 27.0536H31.1557C31.4303 27.0536 31.6562 27.282 31.6562 27.5596V32.3852H35.7051C35.9823 32.3852 36.2082 32.6144 36.2082 32.8929V34.4143C36.2082 34.6953 35.9823 34.922 35.7051 34.922H29.1468V27.5596C29.1468 27.282 29.3735 27.0536 29.6507 27.0536ZM31.731 20.2151C34.8367 20.2151 37.6569 21.4919 39.6952 23.5558C41.7369 25.6137 43 28.4621 43 31.6084C43 34.7513 41.7386 37.603 39.6994 39.6635L39.6423 39.7178C37.6074 41.7452 34.8132 43 31.731 43C28.6185 43 25.8008 41.7231 23.7625 39.6627L23.7088 39.6041C21.7016 37.5462 20.4603 34.7199 20.4603 31.6084C20.4603 28.4621 21.7234 25.6137 23.7625 23.5533C25.8008 21.4919 28.621 20.2151 31.731 20.2151ZM38.3439 24.9193C36.6567 23.212 34.316 22.1533 31.731 22.1533C29.1485 22.1533 26.8087 23.212 25.1172 24.9227C23.4249 26.6325 22.3776 28.9978 22.3776 31.6084C22.3776 34.1978 23.4064 36.5444 25.0668 38.2466L25.1172 38.2933C26.8087 40.0031 29.1485 41.0626 31.731 41.0626C34.2908 41.0626 36.6121 40.0218 38.2994 38.3433L38.3447 38.2941C40.037 36.5834 41.0835 34.219 41.0835 31.6084C41.0835 28.9978 40.0354 26.6325 38.3439 24.9193ZM4.77031 20.5691C4.67205 20.5691 4.58303 20.1276 4.58303 19.5877C4.58303 19.0452 4.66029 18.6079 4.77031 18.6079H9.55238C9.65148 18.6079 9.74051 19.0494 9.74051 19.5877C9.74051 20.1293 9.66324 20.5691 9.55238 20.5691H4.77031ZM12.3936 20.5691C12.2953 20.5691 12.2063 20.1276 12.2063 19.5877C12.2063 19.0452 12.2836 18.6079 12.3936 18.6079H17.1756C17.2747 18.6079 17.3638 19.0494 17.3638 19.5877C17.3638 20.1293 17.2865 20.5691 17.1756 20.5691H12.3936ZM20.0168 20.5691C19.9194 20.5691 19.8304 20.1276 19.8304 19.5877C19.8304 19.0452 19.9077 18.6079 20.0168 18.6079H24.7989C24.8988 18.6079 24.9879 19.0452 24.9879 19.5834C24.5092 19.8848 24.0472 20.2151 23.608 20.5691H20.0168ZM4.78207 26.1927C4.68297 26.1927 4.59395 25.7513 4.59395 25.2105C4.59395 24.6688 4.67205 24.2273 4.78207 24.2273H9.56414C9.66324 24.2273 9.75059 24.6688 9.75059 25.2105C9.75059 25.7513 9.67416 26.1927 9.56414 26.1927H4.78207ZM12.4053 26.1927C12.3062 26.1927 12.2172 25.7513 12.2172 25.2105C12.2172 24.6688 12.2953 24.2273 12.4053 24.2273H17.1874C17.2865 24.2273 17.3747 24.6688 17.3747 25.2105C17.3747 25.7513 17.2974 26.1927 17.1874 26.1927H12.4053ZM4.79215 31.8198C4.69305 31.8198 4.60402 31.3783 4.60402 30.8367C4.60402 30.2959 4.68297 29.8544 4.79215 29.8544H9.57422C9.67416 29.8544 9.76234 30.2959 9.76234 30.8367C9.76234 31.3783 9.68424 31.8198 9.57422 31.8198H4.79215ZM12.4163 31.8198C12.3163 31.8198 12.2273 31.3783 12.2273 30.8367C12.2273 30.2959 12.3062 29.8544 12.4163 29.8544H17.1983C17.2974 29.8544 17.3864 30.2959 17.3864 30.8367C17.3864 31.3783 17.3075 31.8198 17.1983 31.8198H12.4163ZM8.97205 1.45261C8.97205 0.652866 9.75059 0 10.724 0C11.6957 0 12.4759 0.64947 12.4759 1.45261V7.80722C12.4759 8.60696 11.6915 9.25983 10.724 9.25983C9.75059 9.25983 8.97205 8.61036 8.97205 7.80722V1.45261ZM1.92912 13.8927H35.3037V6.5762C35.3037 6.3266 35.2037 6.10671 35.0442 5.94541C34.8846 5.7841 34.6587 5.68392 34.421 5.68392H31.2212C30.6845 5.68392 30.2478 5.24245 30.2478 4.70165C30.2478 4.16 30.6845 3.71853 31.2212 3.71853H34.421C35.2037 3.71853 35.9075 4.0386 36.4215 4.55817C36.9355 5.0786 37.2513 5.78835 37.2513 6.58045V18.1953C36.6121 17.9729 35.9571 17.7938 35.2827 17.6613V15.8462H35.3037H1.92912V34.7929C1.92912 35.0425 2.02822 35.2615 2.18779 35.4229C2.3482 35.5842 2.57496 35.6852 2.81264 35.6852H18.6731C18.8545 36.3652 19.0812 37.0291 19.3542 37.6676H2.83111C2.05006 37.6676 1.34459 37.3492 0.828926 36.8279C0.314941 36.3126 0 35.6028 0 34.8099V6.58384C0 5.79514 0.314941 5.08115 0.828926 4.56157C1.34459 4.04115 2.0467 3.72278 2.83111 3.72278H6.24676C6.78258 3.72278 7.21846 4.16425 7.21846 4.7042C7.21846 5.2467 6.78258 5.68817 6.24676 5.68817H2.83111C2.58252 5.68817 2.36584 5.78835 2.20627 5.94965C2.0467 6.11096 1.94676 6.33934 1.94676 6.58045V13.8953H1.92912V13.8927ZM15.2784 5.68392C14.7418 5.68392 14.3067 5.24245 14.3067 4.70165C14.3067 4.16 14.7418 3.71853 15.2784 3.71853H21.7914C22.3281 3.71853 22.7631 4.16 22.7631 4.70165C22.7631 5.24245 22.3281 5.68392 21.7914 5.68392H15.2784Z" fill="white"/>
</svg>
