<svg width="22" height="24" viewBox="0 0 22 24" fill="none" xmlns="http://www.w3.org/2000/svg">
<path id="Vector" d="M10.9845 0.486328C10.7196 0.490468 10.4672 0.599528 10.2826 0.789572C10.0981 0.979616 9.99646 1.23512 10.0001 1.5V2H4.50008C4.36762 1.9982 4.23612 2.02274 4.11321 2.07219C3.99031 2.12164 3.87846 2.19501 3.78415 2.28805C3.68984 2.38108 3.61496 2.49193 3.56384 2.61415C3.51273 2.73637 3.48641 2.86752 3.48641 3H2.00008C1.86757 2.99813 1.73601 3.02261 1.61304 3.07202C1.49007 3.12143 1.37815 3.1948 1.28378 3.28784C1.18941 3.38088 1.11447 3.49176 1.06333 3.61401C1.01218 3.73627 0.98584 3.86747 0.98584 4C0.98584 4.13253 1.01218 4.26373 1.06333 4.38599C1.11447 4.50824 1.18941 4.61912 1.28378 4.71216C1.37815 4.8052 1.49007 4.87857 1.61304 4.92798C1.73601 4.97739 1.86757 5.00187 2.00008 5H20.0001C20.1326 5.00187 20.2642 4.97739 20.3871 4.92798C20.5101 4.87857 20.622 4.8052 20.7164 4.71216C20.8108 4.61912 20.8857 4.50824 20.9368 4.38599C20.988 4.26373 21.0143 4.13253 21.0143 4C21.0143 3.86747 20.988 3.73627 20.9368 3.61401C20.8857 3.49176 20.8108 3.38088 20.7164 3.28784C20.622 3.1948 20.5101 3.12143 20.3871 3.07202C20.2642 3.02261 20.1326 2.99813 20.0001 3H18.5138C18.5138 2.86752 18.4874 2.73637 18.4363 2.61415C18.3852 2.49193 18.3103 2.38108 18.216 2.28805C18.1217 2.19501 18.0099 2.12164 17.8869 2.07219C17.764 2.02274 17.6325 1.9982 17.5001 2H12.0001V1.5C12.0019 1.36621 11.9769 1.23341 11.9265 1.10947C11.876 0.985533 11.8013 0.872969 11.7066 0.778448C11.6119 0.683927 11.4992 0.60937 11.3751 0.559193C11.2511 0.509016 11.1182 0.484238 10.9845 0.486328ZM2.00008 7L3.79305 22.2344C3.91105 23.2414 4.76343 24 5.77743 24H16.2227C17.2367 24 18.0881 23.2414 18.2071 22.2344L20.0001 7H2.00008Z" fill="#C00E0E"/>
</svg>
