<svg width="23" height="23" viewBox="0 0 23 23" fill="none" xmlns="http://www.w3.org/2000/svg">
<g id="Group">
<path id="Vector" fill-rule="evenodd" clip-rule="evenodd" d="M20.1643 0.246429C19.9846 0.0785874 19.7787 -0.0119341 19.5485 0.00126699C19.3183 0.00126699 19.1124 0.0917885 18.9458 0.272831L17.585 1.69477L21.3959 5.40427L22.7679 3.95592C22.9345 3.78808 22.9981 3.56744 22.9981 3.33547C22.9981 3.10351 22.9083 2.88287 22.7417 2.72823L20.1643 0.246429ZM1.56291 0.959286H10.9591V3.41845H2.729C2.65039 3.41845 2.57739 3.4524 2.52498 3.5052C2.47257 3.55801 2.43888 3.63156 2.43888 3.71076V20.2517C2.43888 20.3309 2.47257 20.4044 2.52498 20.4572C2.57739 20.51 2.65039 20.544 2.729 20.544H19.1461C19.2247 20.544 19.2977 20.51 19.3501 20.4572C19.4025 20.4044 19.4362 20.3309 19.4362 20.2517V12.2764H21.877V21.4247C21.877 21.8603 21.6991 22.2507 21.4165 22.5355C21.1339 22.8202 20.7408 22.9994 20.314 22.9994H1.56291C1.12866 22.9994 0.743083 22.8202 0.460449 22.5355C0.177816 22.2526 0 21.8547 0 21.4247V2.53398C0 2.09646 0.177816 1.70797 0.460449 1.42321C0.741211 1.13844 1.13615 0.959286 1.56291 0.959286ZM13.0311 14.1566C12.5313 14.3244 12.0166 14.479 11.5168 14.6488C11.0171 14.8166 10.5155 14.9845 10.0026 15.1523C8.80843 15.5408 8.15519 15.7595 8.01294 15.7992C7.87256 15.8388 7.9624 15.2824 8.25627 14.1188L9.20524 10.4603L9.28385 10.3792L13.0311 14.1547V14.1566ZM10.6708 8.92706L16.5537 2.7716L20.3646 6.4679L14.4162 12.7007L10.6708 8.92706Z" fill="#006A37"/>
</g>
</svg>
