<svg width="35" height="36" viewBox="0 0 35 36" fill="none" xmlns="http://www.w3.org/2000/svg">
<path id="Vector" fill-rule="evenodd" clip-rule="evenodd" d="M12.488 22.5613C14.1267 27.4246 20.975 27.6033 22.5149 22.5613C24.328 24.2048 29.6916 24.5359 31.6877 25.658C32.3182 26.0125 32.8906 26.4637 33.3468 27.076C34.0412 28.0018 34.4683 29.2118 34.5845 30.7499L35 34.1953C34.8983 35.2822 34.2881 35.9092 33.0824 36H1.91765C0.71476 35.9062 0.101694 35.2822 0 34.1953L0.415491 30.7499C0.531712 29.2147 0.958825 28.0047 1.65325 27.076C2.11232 26.4637 2.6818 26.0125 3.3123 25.658C5.31131 24.5359 10.6749 24.2078 12.488 22.5613ZM26.6524 27.7498H27.7013C27.8989 27.7498 28.0587 27.911 28.0587 28.1102V29.6893H29.6248C29.8194 29.6893 29.9822 29.8505 29.9822 30.0497V31.1073C29.9822 31.3036 29.8223 31.4677 29.6248 31.4677H28.0587V33.0468C28.0587 33.2431 27.8989 33.4072 27.7013 33.4072H26.6524C26.4577 33.4072 26.295 33.246 26.295 33.0468V31.4677H24.729C24.5343 31.4677 24.3716 31.3065 24.3716 31.1073V30.0497C24.3716 29.8534 24.5314 29.6893 24.729 29.6893H26.295V28.1102C26.295 27.911 26.4548 27.7498 26.6524 27.7498ZM11.2328 10.7866C10.8899 10.8013 10.6284 10.8716 10.4512 10.9917C10.3495 11.0591 10.274 11.147 10.2275 11.2524C10.1752 11.3696 10.149 11.5103 10.1548 11.6714C10.1694 12.146 10.4163 12.77 10.8928 13.4849L10.8986 13.4966L12.4502 15.984C13.072 16.9801 13.7228 17.9967 14.5335 18.7438C15.3121 19.4616 16.2564 19.9479 17.5058 19.9508C18.8598 19.9538 19.8477 19.4499 20.6525 18.6911C21.4893 17.903 22.1459 16.8219 22.7968 15.7408L24.543 12.8404C24.8684 12.0903 24.9875 11.5894 24.912 11.2964C24.8684 11.1206 24.6767 11.0356 24.3483 11.0181C24.2786 11.0151 24.2089 11.0151 24.1362 11.0151C24.0578 11.0181 23.9764 11.0239 23.8922 11.0298C23.8457 11.0327 23.7992 11.0298 23.7585 11.021C23.6045 11.0298 23.4418 11.0181 23.2791 10.9946L23.8776 8.32562C19.438 9.03168 16.1199 5.70642 11.4274 7.66056L11.7674 10.81C11.5756 10.8188 11.3984 10.813 11.2328 10.7866ZM24.9469 10.227C25.3769 10.3589 25.6529 10.6343 25.7662 11.0796C25.8912 11.5718 25.7546 12.2661 25.342 13.2154C25.3333 13.2329 25.3246 13.2505 25.3159 13.2652L23.5464 16.2008C22.8665 17.3317 22.175 18.4655 21.251 19.3356C20.2951 20.238 19.1184 20.8386 17.5058 20.8356C16.0007 20.8327 14.8705 20.2526 13.9407 19.3971C13.0429 18.5709 12.3572 17.5016 11.7064 16.4586L10.1548 13.9712C9.58825 13.1187 9.29188 12.3394 9.27445 11.7007C9.26573 11.3989 9.31803 11.1265 9.42554 10.8862C9.54176 10.6343 9.71899 10.4233 9.95725 10.2622C10.0706 10.186 10.1955 10.1215 10.3321 10.0688C10.2304 8.72113 10.1926 7.02188 10.2594 5.59802C10.2943 5.2611 10.3582 4.92418 10.4512 4.58433C10.8463 3.15754 11.84 2.00908 13.072 1.21805C13.5049 0.939726 13.9814 0.708276 14.4812 0.526632C17.4622 -0.560304 21.4108 0.0315044 23.5261 2.33721C24.3861 3.27766 24.9265 4.52281 25.0428 6.16932L24.9469 10.227Z" fill="#21C475"/>
</svg>
