<svg width="35" height="36" viewBox="0 0 35 36" fill="none" xmlns="http://www.w3.org/2000/svg">
<path id="Vector" fill-rule="evenodd" clip-rule="evenodd" d="M12.4877 22.5613C14.1264 27.4246 20.9748 27.6033 22.5147 22.5613C24.3277 24.2048 29.6914 24.5359 31.6875 25.658C32.318 26.0125 32.8903 26.4637 33.3465 27.076C34.0409 28.0018 34.468 29.2118 34.5843 30.7499L34.9998 34.1953C34.8981 35.2822 34.2879 35.9092 33.0821 36H1.9174C0.714516 35.9062 0.101449 35.2822 -0.000244141 34.1953L0.415246 30.7499C0.531468 29.2147 0.95858 28.0047 1.653 27.076C2.11208 26.4637 2.68156 26.0125 3.31206 25.658C5.31106 24.5359 10.6747 24.2078 12.4877 22.5613ZM26.6522 27.7498H27.7011C27.8986 27.7498 28.0584 27.911 28.0584 28.1102V29.6893H29.6245C29.8192 29.6893 29.9819 29.8505 29.9819 30.0497V31.1073C29.9819 31.3036 29.8221 31.4677 29.6245 31.4677H28.0584V33.0468C28.0584 33.2431 27.8986 33.4072 27.7011 33.4072H26.6522C26.4575 33.4072 26.2948 33.246 26.2948 33.0468V31.4677H24.7287C24.534 31.4677 24.3713 31.3065 24.3713 31.1073V30.0497C24.3713 29.8534 24.5311 29.6893 24.7287 29.6893H26.2948V28.1102C26.2948 27.911 26.4546 27.7498 26.6522 27.7498ZM11.2325 10.7866C10.8897 10.8013 10.6282 10.8716 10.4509 10.9917C10.3492 11.0591 10.2737 11.147 10.2272 11.2524C10.1749 11.3696 10.1488 11.5103 10.1546 11.6714C10.1691 12.146 10.4161 12.77 10.8926 13.4849L10.8984 13.4966L12.4499 15.984C13.0717 16.9801 13.7226 17.9967 14.5332 18.7438C15.3119 19.4616 16.2562 19.9479 17.5056 19.9508C18.8595 19.9538 19.8474 19.4499 20.6523 18.6911C21.489 17.903 22.1457 16.8219 22.7965 15.7408L24.5428 12.8404C24.8682 12.0903 24.9873 11.5894 24.9118 11.2964C24.8682 11.1206 24.6764 11.0356 24.3481 11.0181C24.2784 11.0151 24.2086 11.0151 24.136 11.0151C24.0575 11.0181 23.9762 11.0239 23.8919 11.0298C23.8454 11.0327 23.7989 11.0298 23.7583 11.021C23.6043 11.0298 23.4416 11.0181 23.2789 10.9946L23.8774 8.32562C19.4377 9.03168 16.1196 5.70642 11.4272 7.66056L11.7671 10.81C11.5754 10.8188 11.3981 10.813 11.2325 10.7866ZM24.9466 10.227C25.3766 10.3589 25.6527 10.6343 25.766 11.0796C25.8909 11.5718 25.7544 12.2661 25.3418 13.2154C25.3331 13.2329 25.3243 13.2505 25.3156 13.2652L23.5462 16.2008C22.8663 17.3317 22.1748 18.4655 21.2508 19.3356C20.2949 20.238 19.1181 20.8386 17.5056 20.8356C16.0005 20.8327 14.8703 20.2526 13.9405 19.3971C13.0427 18.5709 12.357 17.5016 11.7061 16.4586L10.1546 13.9712C9.588 13.1187 9.29164 12.3394 9.2742 11.7007C9.26549 11.3989 9.31779 11.1265 9.42529 10.8862C9.54151 10.6343 9.71875 10.4233 9.957 10.2622C10.0703 10.186 10.1953 10.1215 10.3318 10.0688C10.2301 8.72113 10.1924 7.02188 10.2592 5.59802C10.294 5.2611 10.358 4.92418 10.4509 4.58433C10.8461 3.15754 11.8398 2.00908 13.0717 1.21805C13.5047 0.939726 13.9812 0.708276 14.4809 0.526632C17.462 -0.560304 21.4106 0.0315044 23.5258 2.33721C24.3859 3.27766 24.9263 4.52281 25.0425 6.16932L24.9466 10.227Z" fill="white"/>
</svg>
