<svg width="39" height="38" viewBox="0 0 39 38" fill="none" xmlns="http://www.w3.org/2000/svg">
<path id="Vector" d="M15.8655 0H15.8705V0.00222039C20.2501 0.00348918 24.2159 1.77885 27.0857 4.64758C29.9507 7.5122 31.7255 11.4721 31.7284 15.8456H31.7306V15.8561V15.8688H31.7284C31.7268 17.6314 31.4373 19.3278 30.9051 20.9097C30.8159 21.1752 30.7226 21.4302 30.6267 21.6738V21.676C30.1678 22.837 29.5746 23.9345 28.8662 24.9454L38.0964 33.2366L38.1021 33.2417L38.1519 33.288L38.1554 33.2915C38.6766 33.7873 38.9603 34.4512 38.9962 35.1249C39.0311 35.791 38.8238 36.4724 38.3681 37.0189L38.3646 37.024L38.3091 37.0884L38.2979 37.0995L38.2516 37.1502L38.2465 37.1569C37.7498 37.6777 37.0868 37.9607 36.412 37.9962C35.7465 38.0314 35.0641 37.8249 34.5169 37.3688L34.5122 37.3653L34.4474 37.3098L34.4382 37.3022L24.9976 28.8222C24.7183 29.0189 24.4333 29.2057 24.1448 29.382C23.7534 29.6215 23.3481 29.8471 22.9346 30.0529C20.8084 31.113 18.4058 31.7093 15.8658 31.7093V31.7115H15.8607V31.7093C11.4811 31.7081 7.51473 29.9327 4.64494 27.064C1.77895 24.1994 0.00507817 20.2388 0.0022217 15.8666H0V15.8561V15.851H0.0022217C0.00349124 11.474 1.7799 7.50998 4.65033 4.64188C7.51664 1.77885 11.4789 0.00507517 15.855 0.00222039V0H15.8655ZM15.8705 3.55579V3.55801H15.8655H15.855V3.55579C12.4634 3.55801 9.38921 4.9356 7.1637 7.15884C4.93852 9.38208 3.55884 12.4576 3.55789 15.8513H3.56011V15.8564V15.8669H3.55789C3.56011 19.2565 4.93756 22.3272 7.16307 24.5521C9.38762 26.7763 12.465 28.1551 15.8604 28.1558V28.1535H15.8655H15.8759V28.1558C19.2675 28.1535 22.3404 26.7766 24.5666 24.5527C26.7918 22.3295 28.1714 19.2549 28.1721 15.8615H28.1702V15.8564V15.8459H28.1721C28.1702 12.4564 26.7915 9.38399 24.5672 7.15979C22.3427 4.9356 19.2662 3.55674 15.8705 3.55579Z" fill="black"/>
</svg>
