<svg width="31" height="31" viewBox="0 0 31 31" fill="none" xmlns="http://www.w3.org/2000/svg">
<path id="stethoscope" fill-rule="evenodd" clip-rule="evenodd" d="M25.3389 1.59791C28.4646 1.59791 31 4.10707 31 7.20044C31 9.74954 29.2795 11.9017 26.9232 12.5808C27.0266 15.1548 27.0594 17.9261 26.681 20.4328C26.2749 23.1442 25.4297 25.4786 23.9186 27.1813C22.3393 28.9614 20.1117 30.0025 17.0213 30.0025C12.6089 30.0025 10.1139 28.1001 8.71373 25.4062C7.56334 23.1941 7.23033 20.5002 7.16726 17.9611C6.53657 17.5217 5.90335 16.9225 5.28274 16.2109C4.38211 15.1748 3.48652 13.884 2.68427 12.5159C2.45722 12.1264 2.44461 11.672 2.61111 11.29C2.56822 11.2076 2.52534 11.1277 2.48245 11.0453C0.734159 7.65733 -0.40614 3.96476 0.136259 2.35191C0.39106 1.59292 1.00157 1.09358 1.89969 0.816453C2.62625 0.594249 3.56725 0.519349 4.6798 0.574276C4.77819 0.486892 4.89171 0.402006 5.0229 0.322112C5.1667 0.232232 5.31302 0.162325 5.45682 0.109895C6.83678 -0.396929 8.24954 0.95377 7.6138 2.34691C7.3262 2.97857 6.69046 3.43796 6.00678 3.42048C5.36599 3.403 4.86396 2.98856 4.49816 2.50171L4.47545 2.45677C3.63032 2.42431 2.94664 2.47424 2.45974 2.62404C2.1671 2.71392 1.98798 2.82128 1.9451 2.94362C1.56416 4.07461 2.63129 7.18296 4.18029 10.1815C4.24335 10.3038 4.30642 10.4261 4.37202 10.546C4.65962 10.6533 4.91189 10.8556 5.0784 11.1402C5.79991 12.3735 6.59207 13.5195 7.37161 14.4158C7.78282 14.8877 8.1789 15.2797 8.54471 15.5693C8.59264 15.5693 8.64057 15.5718 8.68598 15.5768C9.03413 15.3296 9.42011 14.9701 9.82376 14.5307C10.6487 13.6369 11.4863 12.4534 12.2482 11.1801C12.4147 10.903 12.6619 10.7058 12.9444 10.5984C14.5641 7.63486 15.7321 4.46659 15.4925 3.21825C15.437 2.93363 15.1822 2.74888 14.8113 2.62654C14.337 2.46925 13.7189 2.40683 13.0479 2.38936C13.0302 2.42681 13.01 2.46426 12.9899 2.5042C12.6241 2.99105 12.122 3.4055 11.4812 3.42298C10.7976 3.44045 10.1643 2.98107 9.87422 2.34941C9.23847 0.956267 10.6512 -0.394432 12.0312 0.109895C12.1775 0.162325 12.3213 0.234729 12.4651 0.322112C12.5559 0.377039 12.6367 0.436959 12.7123 0.494382C13.6912 0.496879 14.6398 0.571779 15.4143 0.831433C16.4309 1.17098 17.16 1.79015 17.3669 2.86872C17.6772 4.49405 16.4562 8.08676 14.7079 11.3399C14.8744 11.7269 14.8592 12.1838 14.6271 12.5758C13.7744 14.0014 12.8183 15.3421 11.8647 16.3757C11.2315 17.0623 10.5806 17.6315 9.93224 18.0285C9.99279 20.1956 10.2703 22.4326 11.1634 24.1503C12.1094 25.9704 13.8552 27.2587 17.0112 27.2587C19.2287 27.2587 20.7777 26.5671 21.8297 25.3812C22.9523 24.1179 23.5957 22.2579 23.9312 20.0383C24.2768 17.7389 24.2465 15.1274 24.1507 12.6831C21.5976 12.1438 19.6778 9.89435 19.6778 7.20044C19.6778 4.10457 22.2106 1.59791 25.3389 1.59791ZM24.1683 10.8281C24.186 10.8331 24.2036 10.8381 24.2213 10.8456H24.2238L24.2415 10.8506L24.2617 10.8556L24.3121 10.8705L24.3474 10.8805L24.3929 10.893C24.413 10.898 24.4307 10.903 24.4484 10.9055L24.4912 10.9155L24.5442 10.9255L24.5846 10.933L24.6477 10.9454L24.6704 10.9504C24.6931 10.9554 24.7158 10.9579 24.741 10.9629L24.7687 10.9679C24.794 10.9729 24.8192 10.9754 24.847 10.9779H24.852H24.857C24.8848 10.9804 24.91 10.9854 24.9378 10.9879L24.958 10.9904C24.9857 10.9929 25.0135 10.9954 25.0387 10.9979H25.0513C25.0816 11.0004 25.1118 11.0029 25.1421 11.0029H25.1446C25.1749 11.0054 25.2077 11.0054 25.238 11.0054H25.243H25.2456C25.2783 11.0054 25.3111 11.0054 25.3414 11.0054C25.3742 11.0054 25.407 11.0054 25.4398 11.0054C25.4726 11.0054 25.5054 11.0029 25.5382 11.0029C25.571 11.0004 25.6013 10.9979 25.6341 10.9979H25.6366C25.6669 10.9954 25.6971 10.9929 25.7274 10.9904H25.7325H25.735C25.7652 10.9879 25.798 10.9829 25.8283 10.9804C25.8586 10.9754 25.8889 10.9729 25.9191 10.9679H25.9242H25.9267C25.957 10.9629 25.9873 10.9579 26.0175 10.9529C26.0478 10.9479 26.0781 10.943 26.1058 10.9355H26.1109H26.1134H26.1159C26.1462 10.9305 26.1739 10.923 26.2042 10.9155H26.2067H26.2093C26.2395 10.908 26.2698 10.9005 26.3001 10.893H26.3026C26.3304 10.8855 26.3581 10.878 26.3859 10.8705L26.401 10.8656C26.4287 10.8581 26.454 10.8506 26.4817 10.8406H26.4842H26.4868C26.5145 10.8306 26.5423 10.8231 26.57 10.8131H26.5751H26.5776C26.6053 10.8031 26.6331 10.7931 26.6608 10.7832H26.6634H26.6659C26.6936 10.7732 26.7239 10.7632 26.7517 10.7507H26.7542C26.7819 10.7407 26.8072 10.7282 26.8349 10.7183L26.8374 10.7158H26.84C28.2199 10.1365 29.1861 8.78583 29.1861 7.20793C29.1861 5.10573 27.4631 3.40051 25.3389 3.40051C23.2147 3.40051 21.4916 5.10573 21.4916 7.20793C21.4916 8.87321 22.5714 10.2888 24.0775 10.8056L24.1305 10.8231L24.1481 10.8281H24.1683ZM25.3389 5.11822C26.5019 5.11822 27.4429 6.04948 27.4429 7.20044C27.4429 8.35141 26.5019 9.28266 25.3389 9.28266C24.1759 9.28266 23.2349 8.35141 23.2349 7.20044C23.2349 6.04948 24.1759 5.11822 25.3389 5.11822Z" fill="white"/>
</svg>
