<svg width="31" height="31" viewBox="0 0 31 31" fill="none" xmlns="http://www.w3.org/2000/svg">
<path id="stethoscope" fill-rule="evenodd" clip-rule="evenodd" d="M25.3387 1.59791C28.4644 1.59791 30.9998 4.10707 30.9998 7.20044C30.9998 9.74954 29.2792 11.9017 26.923 12.5808C27.0264 15.1548 27.0592 17.9261 26.6808 20.4328C26.2746 23.1442 25.4295 25.4786 23.9183 27.1813C22.3391 28.9614 20.1114 30.0025 17.021 30.0025C12.6087 30.0025 10.1136 28.1001 8.71349 25.4062C7.5631 23.1941 7.23009 20.5002 7.16702 17.9611C6.53632 17.5217 5.9031 16.9225 5.2825 16.2109C4.38186 15.1748 3.48627 13.884 2.68403 12.5159C2.45698 12.1264 2.44436 11.672 2.61087 11.29C2.56798 11.2076 2.52509 11.1277 2.48221 11.0453C0.733915 7.65733 -0.406385 3.96476 0.136015 2.35191C0.390816 1.59292 1.00133 1.09358 1.89944 0.816453C2.626 0.594249 3.567 0.519349 4.67955 0.574276C4.77794 0.486892 4.89147 0.402006 5.02265 0.322112C5.16645 0.232232 5.31277 0.162325 5.45657 0.109895C6.83654 -0.396929 8.2493 0.95377 7.61355 2.34691C7.32596 2.97857 6.69021 3.43796 6.00654 3.42048C5.36575 3.403 4.86372 2.98856 4.49791 2.50171L4.47521 2.45677C3.63007 2.42431 2.9464 2.47424 2.4595 2.62404C2.16686 2.71392 1.98774 2.82128 1.94485 2.94362C1.56391 4.07461 2.63105 7.18296 4.18004 10.1815C4.24311 10.3038 4.30618 10.4261 4.37177 10.546C4.65937 10.6533 4.91165 10.8556 5.07815 11.1402C5.79967 12.3735 6.59183 13.5195 7.37137 14.4158C7.78258 14.8877 8.17866 15.2797 8.54446 15.5693C8.59239 15.5693 8.64033 15.5718 8.68574 15.5768C9.03388 15.3296 9.41987 14.9701 9.82351 14.5307C10.6485 13.6369 11.486 12.4534 12.2479 11.1801C12.4144 10.903 12.6617 10.7058 12.9442 10.5984C14.5638 7.63486 15.7319 4.46659 15.4922 3.21825C15.4367 2.93363 15.1819 2.74888 14.8111 2.62654C14.3368 2.46925 13.7187 2.40683 13.0476 2.38936C13.03 2.42681 13.0098 2.46426 12.9896 2.5042C12.6238 2.99105 12.1218 3.4055 11.481 3.42298C10.7973 3.44045 10.1641 2.98107 9.87397 2.34941C9.23823 0.956267 10.651 -0.394432 12.031 0.109895C12.1773 0.162325 12.3211 0.234729 12.4649 0.322112C12.5557 0.377039 12.6364 0.436959 12.7121 0.494382C13.6909 0.496879 14.6395 0.571779 15.414 0.831433C16.4307 1.17098 17.1598 1.79015 17.3666 2.86872C17.6769 4.49405 16.4559 8.08676 14.7076 11.3399C14.8741 11.7269 14.859 12.1838 14.6269 12.5758C13.7742 14.0014 12.8181 15.3421 11.8644 16.3757C11.2312 17.0623 10.5804 17.6315 9.93199 18.0285C9.99254 20.1956 10.27 22.4326 11.1631 24.1503C12.1092 25.9704 13.8549 27.2587 17.0109 27.2587C19.2285 27.2587 20.7775 26.5671 21.8295 25.3812C22.9521 24.1179 23.5954 22.2579 23.9309 20.0383C24.2766 17.7389 24.2463 15.1274 24.1504 12.6831C21.5974 12.1438 19.6775 9.89435 19.6775 7.20044C19.6775 4.10457 22.2104 1.59791 25.3387 1.59791ZM24.1681 10.8281C24.1857 10.8331 24.2034 10.8381 24.2211 10.8456H24.2236L24.2412 10.8506L24.2614 10.8556L24.3119 10.8705L24.3472 10.8805L24.3926 10.893C24.4128 10.898 24.4305 10.903 24.4481 10.9055L24.491 10.9155L24.544 10.9255L24.5843 10.933L24.6474 10.9454L24.6701 10.9504C24.6928 10.9554 24.7155 10.9579 24.7408 10.9629L24.7685 10.9679C24.7937 10.9729 24.819 10.9754 24.8467 10.9779H24.8518H24.8568C24.8846 10.9804 24.9098 10.9854 24.9375 10.9879L24.9577 10.9904C24.9855 10.9929 25.0132 10.9954 25.0384 10.9979H25.0511C25.0813 11.0004 25.1116 11.0029 25.1419 11.0029H25.1444C25.1747 11.0054 25.2075 11.0054 25.2377 11.0054H25.2428H25.2453C25.2781 11.0054 25.3109 11.0054 25.3412 11.0054C25.374 11.0054 25.4068 11.0054 25.4396 11.0054C25.4724 11.0054 25.5052 11.0029 25.538 11.0029C25.5707 11.0004 25.601 10.9979 25.6338 10.9979H25.6363C25.6666 10.9954 25.6969 10.9929 25.7272 10.9904H25.7322H25.7347C25.765 10.9879 25.7978 10.9829 25.8281 10.9804C25.8583 10.9754 25.8886 10.9729 25.9189 10.9679H25.9239H25.9265C25.9567 10.9629 25.987 10.9579 26.0173 10.9529C26.0476 10.9479 26.0778 10.943 26.1056 10.9355H26.1106H26.1131H26.1157C26.1459 10.9305 26.1737 10.923 26.204 10.9155H26.2065H26.209C26.2393 10.908 26.2696 10.9005 26.2998 10.893H26.3024C26.3301 10.8855 26.3579 10.878 26.3856 10.8705L26.4007 10.8656C26.4285 10.8581 26.4537 10.8506 26.4815 10.8406H26.484H26.4865C26.5143 10.8306 26.542 10.8231 26.5698 10.8131H26.5748H26.5773C26.6051 10.8031 26.6328 10.7931 26.6606 10.7832H26.6631H26.6656C26.6934 10.7732 26.7237 10.7632 26.7514 10.7507H26.7539C26.7817 10.7407 26.8069 10.7282 26.8347 10.7183L26.8372 10.7158H26.8397C28.2197 10.1365 29.1859 8.78583 29.1859 7.20793C29.1859 5.10573 27.4628 3.40051 25.3387 3.40051C23.2145 3.40051 21.4914 5.10573 21.4914 7.20793C21.4914 8.87321 22.5712 10.2888 24.0773 10.8056L24.1302 10.8231L24.1479 10.8281H24.1681ZM25.3387 5.11822C26.5017 5.11822 27.4427 6.04948 27.4427 7.20044C27.4427 8.35141 26.5017 9.28266 25.3387 9.28266C24.1756 9.28266 23.2346 8.35141 23.2346 7.20044C23.2346 6.04948 24.1756 5.11822 25.3387 5.11822Z" fill="#21C475"/>
</svg>
